<?xml version="1.0" encoding="UTF-8"?>
<svg width="12px" height="12px" viewBox="0 0 12 12" version="1.1" xmlns="http://www.w3.org/2000/svg" xmlns:xlink="http://www.w3.org/1999/xlink">
    <!-- Generator: Sketch 52.5 (67469) - http://www.bohemiancoding.com/sketch -->
    <title>error_icon</title>
    <desc>Created with Sketch.</desc>
    <g id="Page-1" stroke="none" stroke-width="1" fill="none" fill-rule="evenodd">
        <g id="登录" transform="translate(-600.000000, -257.000000)" fill="#F5222D">
            <g id="error_icon" transform="translate(600.000000, 257.000000)">
                <path d="M0,6 C0,2.6859375 2.6859375,0 6,0 C9.3140625,0 12,2.6859375 12,6 C12,9.3140625 9.3140625,12 6,12 C2.6859375,12 0,9.3140625 0,6 Z M7,3 C7,2.446875 6.553125,2 6,2 L6,2 C5.446875,2 5,2.446875 5,3 L5,3 C5,3.553125 5.446875,4 6,4 L6,4 C6.553125,4 7,3.553125 7,3 L7,3 L7,3 Z M6,5 C5.44771525,5 5,5.44371665 5,5.99980749 L5,9.00019251 C5,9.55237094 5.44386482,10 6,10 L6,10 C6.55228475,10 7,9.55628335 7,9.00019251 L7,5.99980749 C7,5.44762906 6.55613518,5 6,5 L6,5 Z" id="Shape-Copy-2" transform="translate(6.000000, 6.000000) scale(1, -1) translate(-6.000000, -6.000000) "></path>
            </g>
        </g>
    </g>
</svg>