<?xml version="1.0" encoding="UTF-8"?>
<svg width="789px" height="730px" viewBox="0 0 789 730" version="1.1" xmlns="http://www.w3.org/2000/svg" xmlns:xlink="http://www.w3.org/1999/xlink">
    <!-- Generator: Sketch 52.5 (67469) - http://www.bohemiancoding.com/sketch -->
    <title>分组</title>
    <desc>Created with Sketch.</desc>
    <g id="Page-1.1" stroke="none" stroke-width="1" fill="none" fill-rule="evenodd">
        <g id="logo__1024透明" transform="translate(-118.000000, -147.000000)">
            <g id="分组">
                <ellipse id="椭圆形" fill="#1A1A1A" cx="513" cy="541.5" rx="124" ry="124.5"></ellipse>
                <g transform="translate(118.000000, 147.000000)" fill="#DBAA63" id="路径">
                    <path d="M244.821713,287.832544 L175.622014,218.180758 L0.56052396,394.385937 L175.622014,570.591116 L244.821713,500.939331 C223.74101,470.956774 210.909277,434.055166 210.909277,394.385937 C210.909277,354.716708 223.74101,317.8151 244.821713,287.832544 Z"></path>
                    <path d="M544.07604,500.939331 L613.275738,570.591116 L788.337228,394.385937 L613.275738,218.180758 L544.07604,287.832544 C565.156742,317.8151 577.988475,354.716708 577.988475,394.385937 C577.988475,434.055166 565.156742,470.956774 544.07604,500.939331 Z"></path>
                    <path d="M501.914634,244.934424 L569.281228,177.127719 L394.219738,0.922540204 L219.158248,177.127719 L286.524842,244.934424 C316.771068,222.793459 353.891437,209.877896 394.219738,209.877896 C434.548039,209.877896 471.668408,222.793459 501.914634,244.934424 Z"></path>
                </g>
                <path d="M768.953009,877 L256.504534,877 C244.608409,877 235,867.136364 235,854.924242 L235,837.075758 C235,824.863636 244.608409,815 256.504534,815 L768.495466,815 C780.391591,815 790,824.863636 790,837.075758 L790,854.924242 C790,867.136364 780.391591,877 768.953009,877 Z" id="路径" fill="#1A1A1A"></path>
            </g>
        </g>
    </g>
</svg>